<svg width="64" height="64" fill="none" xmlns="http://www.w3.org/2000/svg"><path d="M49.454 11.643h2.91v2.909a2.908 2.908 0 105.818 0v-2.91h2.909a2.91 2.91 0 100-5.817h-2.91V2.917a2.909 2.909 0 00-5.817 0v2.908h-2.91a2.91 2.91 0 000 5.818zm-32 5.817v29.088a2.909 2.909 0 005.819 0V17.46a2.908 2.908 0 10-5.819 0zm42.473 5.818a2.91 2.91 0 00-2.269 3.432 26.176 26.176 0 01-13.224 28.325A26.185 26.185 0 016.109 35.787 26.176 26.176 0 0120.94 8.268a26.185 26.185 0 0116.355-1.92A2.967 2.967 0 0038.459.532 31.422 31.422 0 0032 .008 32.003 32.003 0 002.436 19.76a31.992 31.992 0 0023.321 43.625 32.003 32.003 0 0032.85-13.605A31.993 31.993 0 0064 32.004a31.417 31.417 0 00-.64-6.4 2.908 2.908 0 00-3.433-2.326zm-30.836 0v2.909a8.725 8.725 0 002.269 5.817 8.726 8.726 0 00-2.27 5.817v2.91a8.726 8.726 0 008.728 8.725h2.91a8.728 8.728 0 008.726-8.726v-2.909a8.726 8.726 0 00-2.269-5.817 8.725 8.725 0 002.27-5.817v-2.91a8.725 8.725 0 00-8.728-8.726h-2.909a8.728 8.728 0 00-8.727 8.727zM43.636 40.73a2.908 2.908 0 01-2.909 2.909h-2.909a2.91 2.91 0 01-2.909-2.909v-2.909a2.909 2.909 0 012.91-2.908h2.908a2.91 2.91 0 012.91 2.908v2.91zm0-17.452v2.909a2.909 2.909 0 01-2.909 2.908h-2.909a2.91 2.91 0 01-2.909-2.909v-2.908a2.908 2.908 0 012.91-2.909h2.908a2.91 2.91 0 012.91 2.909z" fill="#000"/></svg>