<svg width="29" height="30" fill="none" xmlns="http://www.w3.org/2000/svg"><path d="M22.409 5.458h1.318V6.82c0 .362.14.708.386.964.247.256.583.4.932.4.35 0 .685-.144.932-.4.248-.256.387-.602.387-.964V5.458h1.318c.35 0 .685-.144.932-.4.247-.255.386-.602.386-.964s-.139-.708-.386-.964a1.296 1.296 0 00-.932-.4h-1.318V1.368c0-.361-.14-.708-.387-.964a1.296 1.296 0 00-.932-.4c-.35 0-.685.144-.932.4a1.388 1.388 0 00-.386.964v1.364H22.41c-.35 0-.685.143-.932.399a1.387 1.387 0 00-.386.964c0 .362.139.709.386.964.247.256.582.4.932.4zm-14.5 2.726V21.82c0 .362.139.709.386.964.247.256.583.4.932.4.35 0 .685-.144.932-.4.248-.255.386-.602.386-.964V8.185c0-.362-.138-.709-.386-.965a1.297 1.297 0 00-.932-.399c-.35 0-.685.144-.932.4a1.388 1.388 0 00-.386.963zm19.245 2.727a1.302 1.302 0 00-.836.585 1.39 1.39 0 00-.192 1.024 12.65 12.65 0 01-.87 7.666 12.11 12.11 0 01-5.122 5.612 11.524 11.524 0 01-7.349 1.339 11.724 11.724 0 01-6.667-3.465 12.43 12.43 0 01-3.35-6.897 12.636 12.636 0 011.295-7.6 12.041 12.041 0 015.425-5.3 11.506 11.506 0 017.411-.899c.35.072.713-.002 1.01-.206.296-.205.502-.523.572-.885a1.43 1.43 0 00-.2-1.044 1.343 1.343 0 00-.855-.592A13.775 13.775 0 0014.5.004c-2.868 0-5.671.88-8.056 2.527a14.9 14.9 0 00-5.34 6.731 15.477 15.477 0 00-.825 8.666c.56 2.91 1.94 5.582 3.968 7.68a14.357 14.357 0 007.424 4.104c2.813.579 5.728.282 8.378-.854a14.617 14.617 0 006.507-5.524A15.368 15.368 0 0029 15.002a15.208 15.208 0 00-.29-3 1.39 1.39 0 00-.193-.499 1.342 1.342 0 00-.364-.383 1.295 1.295 0 00-.998-.209zm-13.972 0v1.364a4.17 4.17 0 001.028 2.727 4.17 4.17 0 00-1.028 2.727v1.363c0 1.085.416 2.126 1.158 2.893a3.889 3.889 0 002.796 1.198h1.319a3.89 3.89 0 002.796-1.198 4.163 4.163 0 001.158-2.893V17.73a4.17 4.17 0 00-1.028-2.727 4.17 4.17 0 001.028-2.727V10.91a4.163 4.163 0 00-1.158-2.892 3.89 3.89 0 00-2.797-1.198h-1.318a3.889 3.889 0 00-2.796 1.198 4.162 4.162 0 00-1.158 2.892zm6.59 8.181c0 .362-.138.709-.385.964-.248.256-.583.4-.933.4h-1.318c-.35 0-.685-.144-.932-.4a1.388 1.388 0 01-.386-.964V17.73c0-.362.139-.709.386-.964.247-.256.583-.4.932-.4h1.319c.35 0 .684.144.932.4.247.255.386.602.386.964v1.363zm0-8.18v1.363c0 .361-.138.708-.385.964-.248.256-.583.4-.933.4h-1.318c-.35 0-.685-.144-.932-.4a1.388 1.388 0 01-.386-.964V10.91c0-.361.139-.708.386-.964a1.3 1.3 0 01.932-.399h1.319c.35 0 .684.144.932.4.247.255.386.602.386.963z" fill="#fff"/></svg>