<svg width="18" height="18" fill="none" xmlns="http://www.w3.org/2000/svg"><path d="M13.5 3.75h.75v.75a.75.75 0 101.5 0v-.75h.75a.75.75 0 100-1.5h-.75V1.5a.75.75 0 10-1.5 0v.75h-.75a.75.75 0 100 1.5zm-8.25 1.5v7.5a.75.75 0 101.5 0v-7.5a.75.75 0 10-1.5 0zm10.95 1.5a.75.75 0 00-.585.885 6.75 6.75 0 11-5.25-5.25.765.765 0 00.3-1.5A8.1 8.1 0 009 .75a8.25 8.25 0 108.085 6.6.75.75 0 00-.885-.6zm-7.95 0v.75A2.25 2.25 0 008.835 9a2.25 2.25 0 00-.585 1.5v.75a2.25 2.25 0 002.25 2.25h.75a2.25 2.25 0 002.25-2.25v-.75a2.25 2.25 0 00-.585-1.5 2.25 2.25 0 00.585-1.5v-.75a2.25 2.25 0 00-2.25-2.25h-.75a2.25 2.25 0 00-2.25 2.25zm3.75 4.5a.75.75 0 01-.75.75h-.75a.75.75 0 01-.75-.75v-.75a.75.75 0 01.75-.75h.75a.75.75 0 01.75.75v.75zm0-4.5v.75a.75.75 0 01-.75.75h-.75a.75.75 0 01-.75-.75v-.75A.75.75 0 0110.5 6h.75a.75.75 0 01.75.75z" fill="#fff"/></svg>