<svg width="30" height="41" fill="none" xmlns="http://www.w3.org/2000/svg"><path fill-rule="evenodd" clip-rule="evenodd" d="M29.46 40.978H0V0h29.46v40.978z" fill="#000"/><path fill-rule="evenodd" clip-rule="evenodd" d="M27.831 33.153H1.627V6.77H27.83v26.382zM3.677 1.518l.559 3.753h-1l-.048-.675h-.35l-.059.675H1.77l.497-3.753h1.411zm-.516 2.414a41.46 41.46 0 01-.148-1.575 27.72 27.72 0 00-.186 1.575h.334zm1.49-2.414h.73c.472 0 .79.021.956.064a.732.732 0 01.379.214c.088.099.141.21.163.33.022.121.033.36.033.716v1.315c0 .337-.016.561-.048.676a.506.506 0 01-.166.266.698.698 0 01-.293.136 2.67 2.67 0 01-.524.038h-1.23V1.518zm.977.642v2.469c.14 0 .226-.028.259-.084.032-.057.048-.21.048-.461V2.626c0-.17-.005-.28-.016-.328a.153.153 0 00-.074-.105.495.495 0 00-.217-.033zm4.09-.642v2.509c0 .284-.009.484-.027.6a.81.81 0 01-.164.353.854.854 0 01-.361.277 1.362 1.362 0 01-.527.094 1.48 1.48 0 01-.594-.112.894.894 0 01-.386-.29.786.786 0 01-.15-.377 8.82 8.82 0 01-.022-.834v-2.22h.976v2.814c0 .164.008.27.026.315.018.045.053.068.108.068.061 0 .1-.025.12-.075.016-.05.025-.169.025-.356V1.518h.977zm1.607 0V4.52h.594v.751h-1.57V1.518h.976zm2.7 0v.751h-.58v3.003h-.976V2.269h-.578v-.751h2.134zm2.523 1.136h-.907v-.278c0-.13-.012-.213-.035-.248-.022-.035-.061-.054-.116-.054a.146.146 0 00-.133.073.416.416 0 00-.044.217c0 .125.017.22.05.283.033.064.125.14.276.23.435.258.708.47.821.634.113.165.169.433.169.8 0 .269-.031.465-.093.592-.063.127-.184.233-.364.32-.18.085-.387.128-.626.128a1.4 1.4 0 01-.669-.148c-.184-.1-.305-.225-.363-.378-.056-.153-.085-.37-.085-.652V3.93h.906v.456c0 .14.012.23.038.27.025.04.07.062.136.062a.159.159 0 00.145-.077.439.439 0 00.048-.227c0-.22-.032-.366-.091-.434-.062-.068-.215-.181-.457-.34a4.57 4.57 0 01-.482-.351.794.794 0 01-.195-.302 1.305 1.305 0 01-.078-.491c0-.287.036-.498.11-.63a.73.73 0 01.355-.312c.164-.075.362-.113.594-.113.254 0 .47.04.649.123.178.082.297.185.354.31.058.124.087.335.087.633v.148zm3.914 1.062c0 .377-.009.644-.027.801a.9.9 0 01-.545.73c-.16.069-.345.104-.556.104-.201 0-.382-.034-.542-.1a.885.885 0 01-.386-.294.886.886 0 01-.173-.429 7.829 7.829 0 01-.028-.812v-.642c0-.377.009-.644.026-.801a.892.892 0 01.547-.73c.158-.069.344-.104.556-.104.2 0 .38.034.54.099a.88.88 0 01.386.295.873.873 0 01.174.43c.02.154.028.423.028.81v.643zm-.976-1.233c0-.175-.01-.286-.029-.336-.019-.047-.059-.073-.119-.073a.131.131 0 00-.117.06c-.027.039-.04.155-.04.35v1.75c0 .22.008.354.026.405.018.051.06.076.125.076s.108-.03.127-.088c.018-.06.027-.198.027-.42V2.483zm3.775-.965v3.754h-.856l-.508-1.707v1.707h-.817V1.518h.817l.547 1.69v-1.69h.817zm1.599 0V4.52h.593v.751h-1.57V1.518h.977zm2.812 0l-.712 2.395V5.27h-.904V3.913l-.687-2.395h.898c.14.73.219 1.224.236 1.476.054-.4.145-.892.27-1.476h.899zM2.849 35.39l.371.117c-.058.206-.15.36-.283.46a.81.81 0 01-.502.15.815.815 0 01-.619-.258c-.16-.17-.242-.405-.242-.702 0-.315.082-.559.244-.733a.834.834 0 01.64-.26.78.78 0 01.563.205c.086.08.15.196.192.347l-.377.09a.396.396 0 00-.14-.232.401.401 0 00-.257-.086.432.432 0 00-.342.151c-.087.1-.13.264-.13.488 0 .24.042.41.129.51a.415.415 0 00.334.152.38.38 0 00.262-.096.548.548 0 00.157-.303zm.614-.238a1.2 1.2 0 01.087-.484.893.893 0 01.176-.26.737.737 0 01.244-.169c.117-.05.253-.075.406-.075.278 0 .501.087.67.26.166.172.25.412.25.72 0 .304-.084.543-.25.715-.165.172-.387.258-.664.258-.281 0-.504-.086-.67-.257-.167-.172-.249-.408-.249-.708zm.393-.012c0 .214.05.375.148.486a.48.48 0 00.377.165.478.478 0 00.373-.164c.097-.11.146-.273.146-.493 0-.217-.047-.377-.142-.484a.48.48 0 00-.377-.16.488.488 0 00-.381.162c-.096.107-.144.27-.144.488zm1.72.945v-1.89h.37l.774 1.262v-1.261h.354v1.889h-.383l-.761-1.231v1.23h-.354zm2.32 0v-1.57h-.56v-.32h1.501v.32h-.56v1.57h-.38zm1.159 0v-1.89h1.4v.32H9.436v.42h.948v.317h-.948v.514h1.055v.319H9.055zm1.744 0v-1.89h.371l.774 1.262v-1.261h.353v1.889h-.382l-.761-1.231v1.23h-.355zm2.32 0v-1.57h-.56v-.32h1.501v.32h-.56v1.57h-.38zm1.898 0v-1.889h.804c.2 0 .348.017.44.052a.433.433 0 01.219.18.544.544 0 01.083.298.506.506 0 01-.125.35.605.605 0 01-.374.175c.083.048.151.1.204.158.054.058.126.16.217.307l.232.369h-.456l-.275-.412a2.764 2.764 0 00-.202-.277.297.297 0 00-.115-.079.65.65 0 00-.192-.02h-.076v.788h-.384zm.383-1.09h.281c.183 0 .297-.008.343-.024a.203.203 0 00.107-.08.25.25 0 00.038-.14.226.226 0 00-.05-.155.236.236 0 00-.144-.074 3.631 3.631 0 00-.278-.006H15.4v.479zm3.22 1.09h-.417l-.164-.429h-.755l-.156.429h-.404l.735-1.889h.404l.756 1.889zm-.704-.747l-.26-.701-.255.7h.515zm1.113.747v-1.57h-.56v-.32h1.501v.32h-.56v1.57h-.38zm1.185 0v-1.89h1.4v.32h-1.02v.42h.949v.317h-.948v.514h1.055v.319h-1.436zm1.74-1.89h.697c.157 0 .277.013.36.037.11.033.204.09.284.174a.825.825 0 01.18.306c.041.12.062.27.062.447 0 .155-.019.29-.058.402a.84.84 0 01-.202.333.665.665 0 01-.268.15c-.11.03-.224.044-.338.04h-.717v-1.889zm.381.32v1.251h.284a.967.967 0 00.23-.018.348.348 0 00.155-.078.412.412 0 00.1-.183 1.29 1.29 0 00.038-.345c0-.146-.013-.258-.038-.336a.448.448 0 00-.108-.183.371.371 0 00-.178-.09 1.708 1.708 0 00-.313-.017h-.17zm2.232-.32h.755c.15 0 .261.007.334.02a.47.47 0 01.4.457.448.448 0 01-.265.409.502.502 0 01.266.17.458.458 0 01.092.285.563.563 0 01-.223.445.542.542 0 01-.257.09 6.576 6.576 0 01-.459.012h-.644v-1.888zm.382.315v.437h.25c.148 0 .24-.002.276-.006a.255.255 0 00.154-.068.197.197 0 00.056-.147.204.204 0 00-.048-.143.217.217 0 00-.143-.065 4.371 4.371 0 00-.326-.007h-.219zm0 .752v.504h.352c.139 0 .225-.004.262-.012a.245.245 0 00.14-.075.236.236 0 00.052-.16.245.245 0 00-.04-.145.235.235 0 00-.12-.086 1.304 1.304 0 00-.338-.027h-.308zm2.012.823v-.795l-.69-1.094h.445l.445.747.435-.748h.44l-.694 1.097v.793h-.38zm-25.467.83H6.02v.642H3.186v.478h2.625v.619H3.186v.602h2.908v.683h-4.6v-3.025zm6.724 2.025l1.603-.056a.53.53 0 00.212.33c.173.12.421.182.742.182.241 0 .427-.032.557-.094.13-.063.194-.135.194-.217 0-.078-.061-.148-.186-.21-.123-.062-.41-.121-.861-.176-.739-.093-1.265-.215-1.578-.367-.318-.152-.475-.347-.475-.583 0-.155.08-.302.243-.44.162-.138.405-.246.73-.326.327-.078.773-.118 1.339-.118.696 0 1.226.072 1.592.215.364.143.582.37.65.682l-1.586.052a.461.461 0 00-.265-.295c-.135-.062-.32-.093-.558-.093-.194 0-.34.024-.44.07-.098.046-.147.101-.147.167 0 .048.04.092.12.13.079.04.267.077.563.113.736.087 1.263.177 1.58.267.319.09.55.201.694.335.145.134.218.282.218.447 0 .195-.097.373-.29.537-.193.164-.463.288-.81.372-.347.084-.784.126-1.312.126-.927 0-1.568-.098-1.925-.295-.356-.2-.557-.45-.604-.755zm7.317 1v-3.026h2.804c.519 0 .915.025 1.19.074.275.05.497.142.665.276a.606.606 0 01.253.49.584.584 0 01-.193.434c-.13.122-.307.22-.53.296-.193.059-.39.1-.59.12.198.038.344.075.436.112.061.025.15.078.269.16.116.081.195.144.235.189l.818.874h-1.897l-.902-.924a.976.976 0 00-.304-.234 1.165 1.165 0 00-.413-.07h-.15v1.228h-1.69zm1.691-1.798h.707c.077 0 .224-.012.444-.04a.549.549 0 00.272-.096c.07-.05.105-.11.105-.177 0-.097-.055-.173-.166-.225-.111-.053-.32-.08-.626-.08h-.737v.618h.001zm5.723-1.228h3.14c.521 0 .924.072 1.203.218.28.144.42.323.42.537 0 .178-.1.332-.3.46-.134.085-.328.153-.586.203.391.052.678.141.862.268.184.129.277.288.277.48a.572.572 0 01-.196.423c-.132.125-.31.224-.537.297a2.92 2.92 0 01-.636.098c-.378.028-.628.04-.752.04H22.95v-3.024zm1.693 1.187h.726c.26 0 .443-.024.545-.074.102-.05.153-.124.153-.22 0-.09-.051-.157-.153-.207-.102-.05-.28-.076-.534-.076h-.737v.577zm0 1.187h.849c.286 0 .489-.028.606-.086.117-.056.176-.133.176-.229 0-.088-.058-.16-.175-.214-.115-.054-.319-.081-.611-.081h-.845v.61z" fill="#fff"/><path fill-rule="evenodd" clip-rule="evenodd" d="M2.593 9.405V7.836h-.459v-.32h1.23v.32h-.459v1.57h-.312zm.968 0V7.516h.466l.282 1.289.278-1.289h.468v1.89h-.29V7.917l-.307 1.487h-.301L3.85 7.918v1.487h-.29zm17.027 10.167c-1.249.461-2.384.447-3.406-.044-1.02-.491-1.777-1.407-2.273-2.749-.318-.858-.457-1.625-.417-2.303.033-.499.153-.988.356-1.444.143-.326.32-.611.528-.86l-3.31-3.829-6.384 2.364-.097 21.446 5.944-2.2-.206-3.464 6.576-2.433 2.095 2.765 6.099-2.255-4.66-5.388a5.44 5.44 0 01-.845.394zm-9.537 2.375l-.45-7.52 4.554 6.002-4.104 1.518z" fill="#000"/><path fill-rule="evenodd" clip-rule="evenodd" d="M16.474 13.662c-.25.64-.198 1.444.162 2.413.352.955.839 1.596 1.462 1.926.623.328 1.272.367 1.95.116.12-.043.225-.101.332-.16l-3.834-4.432c-.023.046-.053.088-.072.137z" fill="#000"/><path fill-rule="evenodd" clip-rule="evenodd" d="M17.901 12.315c.7-.259 1.35-.229 1.948.09.599.318 1.077.96 1.435 1.925.361.977.414 1.79.161 2.438a2.234 2.234 0 01-1.065 1.19l1.053 1.22c.784-.452 1.346-1.07 1.688-1.854.454-1.04.43-2.241-.074-3.6-.507-1.372-1.275-2.304-2.304-2.8-1.029-.495-2.161-.514-3.4-.056-.684.254-1.247.588-1.688 1.005-.1.093-.192.193-.278.3l1.17 1.352c.262-.562.708-.97 1.354-1.21z" fill="#000"/></svg>