<svg width="20" height="20" fill="none" xmlns="http://www.w3.org/2000/svg"><path d="M9 8.15l-.9-.875a.975.975 0 00-.713-.263.978.978 0 00-.687.288.948.948 0 00-.275.7.95.95 0 00.275.7l2.6 2.6a.948.948 0 00.7.275.948.948 0 00.7-.275l2.625-2.625a.894.894 0 00.263-.688.979.979 0 00-.288-.687.994.994 0 00-.7-.288.872.872 0 00-.7.288l-.9.85V4.975a.928.928 0 00-.287-.7A.993.993 0 0010 4a.967.967 0 00-.712.287A.968.968 0 009 5v3.15zM6 15h8.025a.926.926 0 00.7-.288A.99.99 0 0015 14a.968.968 0 00-.288-.713A.967.967 0 0014 13H5.975a.928.928 0 00-.7.287A.993.993 0 005 14c0 .283.096.52.287.712.192.192.43.288.713.288zm4 5a9.733 9.733 0 01-3.9-.788 10.092 10.092 0 01-3.175-2.137c-.9-.9-1.612-1.958-2.137-3.175A9.732 9.732 0 010 10a9.74 9.74 0 01.788-3.9 10.092 10.092 0 012.137-3.175c.9-.9 1.958-1.613 3.175-2.138A9.743 9.743 0 0110 0a9.74 9.74 0 013.9.787 10.105 10.105 0 013.175 2.138c.9.9 1.612 1.958 2.137 3.175A9.733 9.733 0 0120 10a9.733 9.733 0 01-.788 3.9 10.092 10.092 0 01-2.137 3.175c-.9.9-1.958 1.612-3.175 2.137A9.733 9.733 0 0110 20z" fill="#000"/></svg>