<svg width="66" height="62" fill="none" xmlns="http://www.w3.org/2000/svg"><path fill-rule="evenodd" clip-rule="evenodd" d="M40.1.96l1.915 24.453 20.824 7.21-20.45 6.633-3.128-5.901S38.207 42.739 43.88 49.4v.003c4.486 5.132 10.7 9.126 18.063 11.1 1.3.347 2.6.623 3.894.828-4.293.421-8.796.084-13.293-1.12-17.11-4.585-28.01-20.075-25.46-35.411a27.278 27.278 0 00-2.297 5.812c-1.447 5.399-1.162 10.895.532 16l-21.56 7.313 13.868-20.231L.676 14.346l25.538 6.833L40.099.959z" fill="url(#paint0_linear_245_331)"/><defs><linearGradient id="paint0_linear_245_331" x1="42.935" y1="1.719" x2="27.259" y2="60.221" gradientUnits="userSpaceOnUse"><stop stop-color="#FFB800"/><stop offset="1" stop-color="#FF27E9"/></linearGradient></defs></svg>