<svg width="206" height="78" fill="none" xmlns="http://www.w3.org/2000/svg"><path d="M6.811 31.737c0 .635.147 1.206.44 1.714.295.501.689.922 1.183 1.263.494.34 1.061.655 1.703.942.64.287 1.315.561 2.023.822.708.254 1.415.521 2.123.802.708.274 1.383.605 2.024.992.64.381 1.208.812 1.702 1.293.494.475.889 1.073 1.182 1.794.294.715.441 1.517.441 2.406 0 1.09-.24 2.105-.721 3.047a7.381 7.381 0 01-1.983 2.426c-.835.668-1.85 1.192-3.045 1.573-1.196.381-2.484.572-3.867.572a13.9 13.9 0 01-1.692-.11 14.244 14.244 0 01-1.873-.351 15.68 15.68 0 01-1.894-.612 9.72 9.72 0 01-1.752-.912 8.033 8.033 0 01-1.453-1.243 5.275 5.275 0 01-.991-1.604A5.452 5.452 0 010 44.567c0-.889.31-1.644.932-2.266a3.097 3.097 0 012.273-.942c.888 0 1.643.314 2.264.942.628.622.941 1.377.941 2.266a3.14 3.14 0 01-.42 1.593 3.146 3.146 0 01-1.122 1.153c1.002.575 2.317.862 3.946.862 1.45 0 2.544-.224 3.286-.671.748-.448 1.122-1.16 1.122-2.135 0-.635-.147-1.203-.441-1.704a3.91 3.91 0 00-1.182-1.273 10.715 10.715 0 00-1.703-.942 28.316 28.316 0 00-2.023-.812c-.708-.26-1.416-.528-2.124-.802a14.192 14.192 0 01-2.023-.992 9.67 9.67 0 01-1.703-1.294c-.494-.48-.888-1.079-1.182-1.794-.293-.721-.44-1.527-.44-2.415a7.15 7.15 0 01.65-3.047 7.04 7.04 0 011.844-2.416c.794-.675 1.77-1.203 2.924-1.584 1.156-.38 2.421-.571 3.797-.571.534 0 1.088.037 1.662.11.581.067 1.186.184 1.813.351.635.167 1.242.37 1.823.611s1.135.548 1.663.923a7.02 7.02 0 011.382 1.233c.388.454.695.988.922 1.603.233.615.35 1.277.35 1.985 0 .889-.314 1.647-.941 2.275-.621.622-1.376.932-2.264.932-.888 0-1.646-.31-2.274-.932a3.118 3.118 0 01-.931-2.275c0-.595.15-1.14.45-1.634a3.24 3.24 0 011.193-1.173c-.889-.534-2.104-.802-3.646-.802-1.41 0-2.431.221-3.065.662-.628.434-.942 1.15-.942 2.145zm14.424-5.613h7.612v21.65h2.003v3.208h-9.615v-3.208h2.003V29.331h-2.003v-3.207zm13.752 4.28a3.118 3.118 0 01-.931-2.275c0-.89.31-1.644.931-2.266a3.097 3.097 0 012.274-.942c.888 0 1.642.314 2.264.942.627.622.941 1.377.941 2.266 0 .888-.314 1.647-.941 2.275a3.085 3.085 0 01-2.264.932c-.888 0-1.646-.31-2.274-.932zm-2.534 2.135h7.612v15.235h2.004v3.208h-9.616v-3.208h2.003V35.746h-2.003V32.54zm11.218 0H54.89v3.207h-3.295l3.175 7.217c.408.949.702 1.75.882 2.406.18-.655.474-1.457.881-2.406l3.165-7.217h-2.804V32.54h8.413v3.207h-2.123l-6.69 15.236h-4.248l-6.69-15.236H43.67V32.54zm28.497.351a10.137 10.137 0 013.736-.692c1.315 0 2.557.23 3.726.692a9.309 9.309 0 013.065 1.934c.868.822 1.552 1.838 2.053 3.047.508 1.21.761 2.526.761 3.95 0 1.423-.253 2.74-.76 3.949-.502 1.21-1.186 2.228-2.054 3.057a9.396 9.396 0 01-3.065 1.924 10.06 10.06 0 01-3.726.692c-1.316 0-2.561-.23-3.736-.692a9.422 9.422 0 01-3.055-1.924c-.862-.829-1.546-1.848-2.054-3.057-.5-1.21-.75-2.526-.75-3.95 0-1.423.25-2.74.75-3.949.508-1.21 1.192-2.225 2.054-3.047a9.334 9.334 0 013.055-1.934zm3.736 2.516c-.468 0-.885.066-1.252.2a2.763 2.763 0 00-1.012.661c-.307.308-.56.705-.761 1.193-.194.488-.347 1.096-.46 1.825a17.485 17.485 0 00-.161 2.535c0 .963.053 1.808.16 2.536.114.729.267 1.337.46 1.825.201.487.455.885.762 1.192.307.308.644.528 1.012.662.367.134.784.2 1.252.2.587 0 1.098-.11 1.532-.33.434-.228.812-.589 1.132-1.083.327-.494.571-1.16.731-1.995.167-.835.25-1.837.25-3.007 0-1.169-.083-2.171-.25-3.007-.16-.835-.404-1.5-.73-1.994-.321-.495-.699-.852-1.133-1.073-.434-.227-.945-.34-1.532-.34z" fill="#fff"/><path fill-rule="evenodd" clip-rule="evenodd" d="M108.099 8.96l1.916 24.453 20.824 7.21-20.45 6.633-3.128-5.901s-1.054 9.384 4.619 16.045v.003c4.486 5.132 10.699 9.126 18.063 11.1 1.3.347 2.599.623 3.894.828-4.293.421-8.796.084-13.293-1.12-17.11-4.585-28.01-20.075-25.46-35.411a27.278 27.278 0 00-2.297 5.812c-1.447 5.399-1.162 10.895.532 16l-21.56 7.313 13.868-20.231-16.951-19.348 25.538 6.833 13.885-20.22z" fill="url(#paint0_linear_245_329)"/><path d="M119.301 38.151h13.616v3.609h-2.403v9.222h-1.602l-2.343-1.764c-1.475 1.443-3.631 2.165-6.467 2.165-1.195 0-2.336-.127-3.424-.381a12.741 12.741 0 01-2.943-1.043 12.898 12.898 0 01-2.423-1.604 11.345 11.345 0 01-1.922-2.054 13.98 13.98 0 01-1.382-2.396 13.124 13.124 0 01-1.121-5.353c0-.922.093-1.831.28-2.726.187-.903.467-1.775.841-2.617a13.49 13.49 0 011.382-2.395 11.179 11.179 0 011.922-2.065 12.904 12.904 0 012.423-1.604 12.746 12.746 0 012.943-1.043 15.021 15.021 0 013.424-.38c3.504 0 6.307.935 8.409 2.806.861.762 1.475 1.53 1.843 2.306.373.768.56 1.737.56 2.907a3.1 3.1 0 01-.941 2.275 3.078 3.078 0 01-2.262.932c-.888 0-1.646-.31-2.273-.932a3.118 3.118 0 01-.931-2.275 3.239 3.239 0 011.021-2.346c-.48-.895-1.131-1.53-1.952-1.905-.814-.374-1.839-.56-3.074-.56a5.21 5.21 0 00-2.252.49 5.42 5.42 0 00-1.792 1.373 8.693 8.693 0 00-1.292 2.086c-.36.801-.63 1.684-.811 2.646a16.98 16.98 0 00-.26 3.027c0 1.05.107 2.058.32 3.027.214.97.524 1.851.931 2.647.408.795.885 1.49 1.432 2.085a5.992 5.992 0 001.882 1.373 5.322 5.322 0 002.243.491c1.268 0 2.336-.404 3.203-1.213V41.76h-4.805v-3.61zm14.817-5.613h6.217l1.261 2.436c1.182-1.892 2.854-2.837 5.016-2.837 1.448 0 2.596.447 3.444 1.343.854.889 1.282 2.045 1.282 3.468 0 .889-.314 1.648-.942 2.276-.62.621-1.374.932-2.262.932a3.11 3.11 0 01-2.273-.932 3.122 3.122 0 01-.931-2.276c0-.36.057-.708.17-1.042-.18-.107-.37-.16-.57-.16-.447 0-.911.293-1.392.881-.474.582-.931 1.454-1.371 2.617l-.04 8.53h4.405v3.208h-12.014v-3.208h2.002V35.745h-2.002v-3.207zm35.24 6.365v8.871h2.002v3.208h-6.237l-.891-2.085c-.68.975-1.471 1.644-2.372 2.005-.895.36-2.146.54-3.755.54a6.112 6.112 0 01-2.332-.44 5.471 5.471 0 01-1.832-1.183 5.422 5.422 0 01-1.182-1.804 6.029 6.029 0 01-.42-2.256c0-1.383.54-2.53 1.622-3.438 1.081-.915 2.462-1.373 4.144-1.373 1.355 0 2.476.13 3.364.39.888.255 1.649.662 2.283 1.224v-4.25c0-.602-.084-1.103-.251-1.504-.16-.408-.403-.718-.73-.932a3.115 3.115 0 00-1.102-.461 7.093 7.093 0 00-1.461-.13c-.454 0-.865.096-1.232.29.207.434.311.892.311 1.373 0 .889-.314 1.648-.941 2.276a3.08 3.08 0 01-2.263.932 3.11 3.11 0 01-2.273-.932 3.122 3.122 0 01-.931-2.276c0-.454.087-.882.261-1.283.18-.4.427-.752.74-1.052.267-.281.544-.532.831-.752a6.479 6.479 0 011.082-.672c.44-.227.917-.414 1.431-.561a12.102 12.102 0 011.842-.35 18.346 18.346 0 012.363-.141 9.75 9.75 0 013.124.49c.974.328 1.815.783 2.523 1.364a6.3 6.3 0 012.282 4.912zm-5.606 7.628v-1.383a5.974 5.974 0 00-1.402-.992c-.514-.274-.991-.411-1.432-.411-.947 0-1.615.16-2.002.48-.387.315-.58.826-.58 1.534 0 .849.166 1.474.5 1.875.334.4.955.601 1.862.601.514 0 1.048-.163 1.602-.491a5.816 5.816 0 001.452-1.213zm34.239-14.394c.934 0 1.752.127 2.453.38.7.255 1.274.605 1.722 1.053.447.441.807 1.006 1.081 1.694.28.682.474 1.417.581 2.205.113.782.17 1.678.17 2.687v7.618H206v3.208h-9.611v-3.208h2.002v-8.02c0-1.055-.096-1.877-.29-2.465-.187-.588-.461-.992-.821-1.213-.354-.22-.838-.33-1.452-.33-.574 0-1.164.25-1.772.751-.607.501-1.181 1.203-1.722 2.105.034.481.05 1 .05 1.554v7.618h2.003v3.208h-9.611v-3.208h2.002v-8.02c0-1.055-.097-1.877-.29-2.465-.187-.588-.461-.992-.821-1.213-.354-.22-.838-.33-1.452-.33-.561 0-1.135.237-1.722.711s-1.144 1.136-1.672 1.985l-.05 9.332h2.002v3.208h-9.611v-3.208h2.003V35.745h-2.003v-3.207h6.218l1.401 2.716a6.39 6.39 0 01.851-1.203 6.02 6.02 0 011.161-.982c.454-.3.985-.531 1.592-.692a7.798 7.798 0 011.993-.24c.807 0 1.528.093 2.162.28.634.18 1.171.451 1.612.812.447.355.817.779 1.111 1.273.294.488.527 1.056.701 1.704a8.53 8.53 0 01.581-1.222 5.89 5.89 0 01.861-1.103c.347-.36.73-.665 1.151-.912a5.645 5.645 0 011.522-.602 7.53 7.53 0 011.912-.23z" fill="#fff"/><defs><linearGradient id="paint0_linear_245_329" x1="110.935" y1="9.719" x2="95.259" y2="68.222" gradientUnits="userSpaceOnUse"><stop stop-color="#FFB800"/><stop offset="1" stop-color="#FF27E9"/></linearGradient></defs></svg>