<svg width="89" height="22" fill="none" xmlns="http://www.w3.org/2000/svg"><g clip-path="url(#clip0_31_670)"><path d="M88.501 10.056a.416.416 0 01.038-.05.337.337 0 01.16-.095h.05l.017.001.031.002.031.005.032.007.03.01a.28.28 0 01.039.023.187.187 0 01.071.125v.032l-.001.015a.238.238 0 01-.014.078l-.015.036-.021.033c-.22.298-.508.708-.865 1.23a38.78 38.78 0 01-1.291 1.787 39.737 39.737 0 01-1.389 1.715 16.37 16.37 0 01-1.651 1.682 8.647 8.647 0 01-.84.664 9.53 9.53 0 01-.91.566 3.562 3.562 0 01-.844.351 3.63 3.63 0 01-.906.13h-.333a2.685 2.685 0 01-.496-.05 2.549 2.549 0 01-.476-.147 2.297 2.297 0 01-.559-.35 1.954 1.954 0 01-.635-1.025 2.242 2.242 0 01-.077-.58v-.061a.937.937 0 01.064-.33.855.855 0 01.047-.103.3.3 0 01.043-.063.33.33 0 01.196-.11.279.279 0 01.234.122.575.575 0 01.082.164.62.62 0 01.029.18v.038a1.429 1.429 0 00.081.467 1.414 1.414 0 00.235.413c.205.268.559.4 1.08.4.52 0 .9-.177 1.144-.534a3.11 3.11 0 00.31-.66 3.03 3.03 0 00.143-.714 9.526 9.526 0 000-1.889c-.117-1.208-.257-1.99-.598-3.968a9.893 9.893 0 01-.106-.7 7.413 7.413 0 01-.047-.71 2.228 2.228 0 01.159-.836c.034-.089.075-.174.121-.258a3.353 3.353 0 01.715-.897 3.36 3.36 0 011.24-.69 2.848 2.848 0 01.811-.122h.03a.634.634 0 01.203.03.71.71 0 01.25.133.332.332 0 01.098.21.783.783 0 01-.218.473c-.145.173-.295.365-.47.579a5.159 5.159 0 00-.252.354 3.94 3.94 0 00-.22.377 2 2 0 00-.217.901v.056a9.23 9.23 0 00.037.79 7.814 7.814 0 00.11.782c.234 1.284.342 1.583.635 3.09a7.231 7.231 0 01.109.758 8.946 8.946 0 01.037.765 3.8 3.8 0 01-.013.316 3.845 3.845 0 01-.033.316 3.825 3.825 0 01-.025.156c-.008.051-.02.103-.03.155a4.11 4.11 0 01-.081.304 10.157 10.157 0 00.452-.403 7.858 7.858 0 00.422-.434 36.23 36.23 0 001.913-2.244 172.45 172.45 0 002.106-2.8l-.002.002z" fill="#00AEEF"/><path d="M73.423 18.414a1.4 1.4 0 01-.424-.068 1.31 1.31 0 01-.379-.202 1.478 1.478 0 01-.353-.423 1.526 1.526 0 01-.08-.166 2.078 2.078 0 01-.139-.562 1.853 1.853 0 01-.009-.193v-.114a3.639 3.639 0 01.246-1.222c.05-.13.108-.257.173-.382a13.617 13.617 0 01.997-1.7c.936-1.364 1.413-1.836 2.287-3.027a4.01 4.01 0 00.313-.46 3.467 3.467 0 00.243-.501l.01-.033.008-.033.004-.034a.354.354 0 00.003-.035c0-.154-.122-.231-.36-.231-.244.002-.546.135-.908.4a11.573 11.573 0 00-.62.507 11.391 11.391 0 00-.58.553c-2.616 2.652-6.181 7.926-6.774 7.926h-.014a1.07 1.07 0 01-.235-.022.949.949 0 01-.113-.029.961.961 0 01-.11-.039 1.01 1.01 0 01-.1-.044 1.033 1.033 0 01-.098-.05 1.314 1.314 0 01-.183-.12 1.11 1.11 0 01-.133-.11.904.904 0 01-.114-.13.319.319 0 01-.07-.125.704.704 0 01-.01-.046 4.417 4.417 0 01.174-.323 3.651 3.651 0 01.203-.306c.248-.384.56-.877.934-1.478 1.672-2.702 2.31-3.962 2.434-4.2a20.787 20.787 0 00.935-2.015 4.34 4.34 0 00.33-1.13c.019-.13.033-.261.04-.392 0-.046.085-.061.248-.061a1.47 1.47 0 01.413.087 1.687 1.687 0 01.428.229 1.807 1.807 0 01.259.228.967.967 0 01.253.652 2.828 2.828 0 01-.237 1.065c-.526 1.276-1.18 2.293-1.18 2.452 0 .015-.02.04.012.015a1.559 1.559 0 00.26-.25c.026-.03.051-.061.075-.094.903-1.045 1.249-1.422 1.84-2.02a15.372 15.372 0 01.612-.586c.105-.095.21-.19.316-.282a14.91 14.91 0 01.635-.517 7.464 7.464 0 01.66-.442c.113-.068.228-.134.345-.196a2.545 2.545 0 01.92-.314 2.91 2.91 0 01.324-.029c.41.002.706.127.888.375a1.653 1.653 0 01.204.452 1.852 1.852 0 01.07.49v.105a2.561 2.561 0 01-.247 1.015c-.45 1.051-1.046 1.91-2.375 3.732a75.413 75.413 0 00-.983 1.364 6.233 6.233 0 00-.414.711 1.115 1.115 0 00-.116.282 1.124 1.124 0 00-.04.304v.046c.024.155.158.232.398.232.2 0 .474-.139.825-.419a13.309 13.309 0 00.873-.791c.092-.092.183-.187.274-.281 1.098-1.139 2.204-2.537 2.568-3.001 1-1.278 1.71-2.233 1.796-2.35a.316.316 0 01.196-.14.296.296 0 01.082-.01c.012 0 .023.002.034.003l.032.004a.354.354 0 01.064.018.178.178 0 01.08.07.192.192 0 01.02.049.14.14 0 01.003.053.31.31 0 01-.014.09.346.346 0 01-.018.043.265.265 0 01-.026.039c-.732 1.002-3.093 4.4-5.144 6.43a11.945 11.945 0 01-.694.646 11.988 11.988 0 01-.748.583c-.456.32-.86.48-1.209.48-.014 0-.038.003-.092 0l.002-.002z" fill="#00AEEF"/><path d="M70.31 10.06a.317.317 0 01.196-.14.296.296 0 01.116-.007c.011.001.022.002.034.005a.351.351 0 01.063.017.178.178 0 01.08.07.189.189 0 01.02.049.14.14 0 01.004.053.326.326 0 01-.015.09.292.292 0 01-.044.08c-.7.962-3.17 4.371-5.249 6.431a11.75 11.75 0 01-1.426 1.23c-.446.32-.827.48-1.143.48-.41 0-.712-.093-.897-.277a1.282 1.282 0 01-.31-.442 1.59 1.59 0 01-.06-.172 2.192 2.192 0 01-.056-.297 2.291 2.291 0 01-.018-.301v-.078l.004-.078a.936.936 0 01.007-.078c.002-.026.005-.051.009-.077a5.314 5.314 0 01-.355.476 5.313 5.313 0 01-.409.432 4.115 4.115 0 01-.846.605 2.033 2.033 0 01-.484.207 2.043 2.043 0 01-.523.07 2.623 2.623 0 01-1.034-.228 2.223 2.223 0 01-.776-.574 2.368 2.368 0 01-.42-.669 3.482 3.482 0 01-.179-.599 3.202 3.202 0 01-.059-.622 4.891 4.891 0 01.15-1.205 8.92 8.92 0 01.44-1.261 9.1 9.1 0 01.678-1.278 11.195 11.195 0 01.583-.851 12.7 12.7 0 01.319-.407 8.572 8.572 0 013.276-2.528 5.05 5.05 0 011.461-.365c.167-.017.335-.025.503-.025h.077a1.864 1.864 0 01.414.042c.136.026.27.065.397.118a1.508 1.508 0 01.765.768 1.983 1.983 0 01.168.558 4.246 4.246 0 01.05.415 2.889 2.889 0 01-.008.468 2.853 2.853 0 01-.187.753l.09.02.088.026a1.97 1.97 0 01.172.06 4.338 4.338 0 01.42.187 1.438 1.438 0 01.137.08l.065.044c.073.053.11.104.11.15a1.678 1.678 0 01-.069.126c-.024.04-.048.081-.075.12a2.243 2.243 0 01-.175.226c-.922 1.22-1.233 1.657-1.669 2.308a11.407 11.407 0 00-.588.948c-.06.108-.12.216-.177.326a2.645 2.645 0 00-.297.715 2.737 2.737 0 00-.053.255v.058c0 .223.126.333.383.333.2 0 .474-.139.824-.419a10.925 10.925 0 00.59-.516 12.935 12.935 0 00.554-.552c1.371-1.43 2.772-3.248 3.647-4.399.32-.422.558-.74.712-.955h-.004zm-10.86 7.433a1.703 1.703 0 00.742-.345 6.934 6.934 0 001.07-.963c.595-.65.988-1.163 2.101-2.726l-.069-.078-.066-.079c-.023-.026-.044-.054-.065-.081l-.062-.083c-.013-.014-.025-.03-.037-.045a.766.766 0 01-.084-.15 1.268 1.268 0 01.113-.156c.021-.024.042-.049.065-.072a.973.973 0 01.07-.066 6.468 6.468 0 00.416-.49l.128-.173c.053-.074.105-.149.154-.225a4.94 4.94 0 00.276-.468 6.98 6.98 0 00.122-.242 2.554 2.554 0 00.248-1.1v-.06a1.129 1.129 0 00-.044-.323 1.198 1.198 0 00-.13-.299.58.58 0 00-.222-.19.623.623 0 00-.286-.07h-.047a3.029 3.029 0 00-1.777.633 7.47 7.47 0 00-1.587 1.576 11.487 11.487 0 00-1.462 2.55 10.87 10.87 0 00-.368 1.024c-.052.174-.1.35-.142.526a3.353 3.353 0 00-.096.469 3.397 3.397 0 000 .951c.007.053.016.105.025.156.095.42.34.633.74.633.093-.003.185-.014.275-.032l-.001-.002z" fill="#00AEEF"/><path d="M57.101 7.356a45.82 45.82 0 013.25-.108c.495.003.863.127 1.107.375a1.186 1.186 0 01.335.594c.017.074.026.151.027.227 0 .098-.022.144-.07.144h-.013l-.072-.022a1.857 1.857 0 01-.14-.054.708.708 0 01-.068-.032 4.507 4.507 0 00-.391-.145 2.455 2.455 0 00-.492-.115 3.315 3.315 0 00-.366-.025h-.198a25.784 25.784 0 00-2.76.149c-.306.033-.61.073-.915.116-2.332 3.333-3.066 4.226-4.453 6.401a26.444 26.444 0 00-1.598 2.84c-.417.88-.626 1.64-.626 2.28v.375l-.006.089a2.252 2.252 0 01-.022.178l-.017.088a.563.563 0 01-.053.144.505.505 0 01-.091.123.385.385 0 01-.198.101.43.43 0 01-.075.007h-.02a.947.947 0 01-.292-.043.998.998 0 01-.266-.13 1.783 1.783 0 01-.38-.342 2.653 2.653 0 01-.297-.481 2.43 2.43 0 01-.139-.37 2.69 2.69 0 01-.096-.425 2.825 2.825 0 01-.031-.434 5.078 5.078 0 01.544-2.152 19.37 19.37 0 01.662-1.23 17.079 17.079 0 01.76-1.174c1.287-1.847 1.957-2.527 4.164-5.345a18.653 18.653 0 00-3.554 1.264 14.172 14.172 0 00-1.087.578 15.786 15.786 0 00-.882.56 7.73 7.73 0 00-.985.83c-.308.329-.462.576-.462.756 0 .18-.058.282-.175.306h-.062a.452.452 0 01-.247-.066 1.334 1.334 0 01-.288-.253 1.367 1.367 0 01-.163-.248 1.504 1.504 0 01-.175-.704v-.04c0-.19.023-.714.627-1.358a6.5 6.5 0 01.846-.708 6.064 6.064 0 01.96-.55 15.93 15.93 0 011.412-.59 15.225 15.225 0 011.465-.451 28.573 28.573 0 012.877-.59c.323-.049.647-.093.97-.131a30.367 30.367 0 00.982-1.366 33.671 33.671 0 00.91-1.413 12.337 12.337 0 00.76-1.49 2.452 2.452 0 00.157-.711 2.726 2.726 0 00-.012-.268 2.587 2.587 0 00-.035-.266 1.038 1.038 0 00-.394-.655 1.738 1.738 0 00-.324-.202 1.528 1.528 0 00-.178-.07 3.638 3.638 0 00-1.065-.171h-.264a18.877 18.877 0 00-2.335.144 18.789 18.789 0 00-2.3.43 24.257 24.257 0 00-8.226 3.852c-.82.595-1.603 1.24-2.34 1.933a12.652 12.652 0 00-1.353 1.47c-.137.175-.27.353-.398.535-.413.613-.617 1.078-.617 1.398v.023a.264.264 0 01-.274.254h-.054a1.023 1.023 0 01-.544-.155 1.795 1.795 0 01-.326-.232 2.15 2.15 0 01-.272-.293 1.255 1.255 0 01-.199-.372 1.293 1.293 0 01-.07-.417c0-.197.069-.506.563-1.255a11.978 11.978 0 01.783-.99 11.25 11.25 0 01.886-.899 22.62 22.62 0 016.471-4.242 27.354 27.354 0 012.326-.876c.394-.128.791-.246 1.19-.356A24.494 24.494 0 0152.249.16a25.962 25.962 0 012.746-.15h.206a13.568 13.568 0 01.842.031 10.574 10.574 0 01.837.095 5.26 5.26 0 01.739.159 5.044 5.044 0 01.709.26 3.032 3.032 0 01.554.322c.172.127.33.273.47.434a1.708 1.708 0 01.392 1.087v.053a2.454 2.454 0 01-.082.435 2.363 2.363 0 01-.166.412C59.02 4.352 58.16 5.786 57.11 7.35l-.006.002-.002.004z" fill="#00AEEF"/><path d="M36.82 21.961a4.96 4.96 0 01-1.038-.23 4.676 4.676 0 01-.493-.2l.359-.892a3.788 3.788 0 001.684.396h.141c1.112 0 1.847-.644 2.645-2.49L34.98 8.029h1.197l4.449 9.459 3.862-9.46h1.134l-4.64 10.953c-.944 2.219-2.035 3.009-3.569 3.009h-.062a4.73 4.73 0 01-.532-.03v.001zM31.03 3.466h1.029v15.142h-1.028V3.466zM18.017 8.031h1.024v1.97c.712-1.243 1.911-2.22 3.864-2.22 2.708 0 4.282 1.826 4.282 4.356v6.465h-1.029v-6.284c0-2.175-1.235-3.606-3.398-3.606-2.1 0-3.716 1.58-3.716 3.778v6.119h-1.027V8.03zM8.04 4.821c4.436.003 8.03 3.557 8.028 7.94-.001 4.382-3.598 7.933-8.034 7.933-4.435 0-8.032-3.551-8.033-7.933C0 8.378 3.593 4.825 8.029 4.82h.011zm0 15.034c3.974-.006 7.19-3.191 7.189-7.117-.004-3.925-3.225-7.106-7.199-7.106-3.974 0-7.196 3.181-7.2 7.108-.003 3.925 3.215 7.11 7.189 7.116h.021-.001z" fill="#231F20"/><path d="M11.678 12.772v.953a3.113 3.113 0 01-.258 1.243 3.17 3.17 0 01-.726 1.046 3.376 3.376 0 01-2.355.952h-.605a3.426 3.426 0 01-1.849-.546 3.368 3.368 0 01-.923-.892 3.23 3.23 0 01-.5-1.168 3.192 3.192 0 01-.066-.634v-.955l.374-.661v-.65a2.809 2.809 0 01.229-1.12 2.89 2.89 0 01.651-.94 3.022 3.022 0 012.116-.86h.541a3.058 3.058 0 011.144.224 2.969 2.969 0 01.972.636 2.836 2.836 0 01.882 2.06v.648l.37.664.002.001zM8.45 15.037a.91.91 0 00.57-1.018.907.907 0 00-.32-.532.928.928 0 00-.59-.208h-.047a.928.928 0 00-.587.21.896.896 0 00-.217 1.142c.104.185.27.33.47.406v.767a.36.36 0 00.044.164.334.334 0 00.116.123h.348a.327.327 0 00.112-.121.332.332 0 00.042-.158v-.773h.059v-.002zm1.522-3.583a1.579 1.579 0 00-.488-1.139 1.681 1.681 0 00-1.171-.48h-.54a1.686 1.686 0 00-1.536 1.004 1.533 1.533 0 00-.126.622v.67h3.86l.001-.676v-.001z" fill="#00AEEF"/></g><defs><clipPath id="clip0_31_670"><path fill="#fff" d="M0 0h89v22H0z"/></clipPath></defs></svg>