<svg width="29" height="18" fill="none" xmlns="http://www.w3.org/2000/svg"><path fill-rule="evenodd" clip-rule="evenodd" d="M.05 5.128a1.118 1.118 0 01.702-1.034 1.14 1.14 0 01.432-.082l11.285.087a1.22 1.22 0 011.195 1.131l.072 1.247L17.5.517A1.095 1.095 0 0118.638.02c.145.027.282.084.405.166l9.45 6.239a1.13 1.13 0 01.32 1.563L22.64 17.34c-.343.52-1.05.675-1.58.347l-7.323-4.537v3.725c0 .621-.506 1.125-1.128 1.125H1.123a1.124 1.124 0 01-1.04-.695 1.115 1.115 0 01-.083-.43L.05 5.128zm1.669.94l-.027 10.099 10.456.01-.005-4.187-.84-.58a.612.612 0 01-.177-.803l1.07-1.81-.066-2.777-10.411.049zm16.892-4.02l-5.428 8.407 8.599 5.388 5.305-8.231-8.477-5.565z" fill="#fff"/><path d="M16.003 11.047c.624 0 1.129-.504 1.129-1.125 0-.622-.505-1.125-1.129-1.125a1.126 1.126 0 100 2.25zm3.809-.703a1.126 1.126 0 100-2.25c-.623 0-1.129.503-1.129 1.125 0 .621.506 1.125 1.129 1.125zm3.949-.704c.623 0 1.129-.503 1.129-1.124 0-.622-.506-1.125-1.129-1.125a1.126 1.126 0 100 2.25zM3.591 9.5c.623 0 1.129-.504 1.129-1.125S4.214 7.25 3.59 7.25a1.126 1.126 0 100 2.25zm3.244 2.953c.624 0 1.129-.504 1.129-1.125s-.505-1.125-1.129-1.125c-.623 0-1.128.504-1.128 1.125s.505 1.125 1.128 1.125zM9.938 9.36a1.127 1.127 0 100-2.25c-.623 0-1.128.503-1.128 1.124 0 .622.505 1.125 1.128 1.125zm-6.206 5.905c.623 0 1.129-.503 1.129-1.125 0-.62-.505-1.125-1.129-1.125a1.126 1.126 0 100 2.25zm6.206 0c.624 0 1.129-.503 1.129-1.125 0-.62-.505-1.125-1.129-1.125a1.126 1.126 0 100 2.25z" fill="#fff"/></svg>