<svg width="30" height="30" fill="none" xmlns="http://www.w3.org/2000/svg"><path d="M23.544 21.54l6.067 6.067-2.004 2.004-6.066-6.067a12.694 12.694 0 01-7.958 2.79c-7.038 0-12.75-5.713-12.75-12.75 0-7.039 5.712-12.75 12.75-12.75s12.75 5.711 12.75 12.75c.005 2.892-.98 5.7-2.79 7.957zm-2.842-1.05a9.884 9.884 0 002.798-6.907 9.914 9.914 0 00-9.917-9.916 9.913 9.913 0 00-9.916 9.916 9.914 9.914 0 009.916 9.917c2.58.004 5.058-1 6.907-2.798l.212-.213zm-5.45-12.324a2.833 2.833 0 103.749 3.748 5.667 5.667 0 11-3.749-3.748z" fill="#fff"/></svg>