<svg width="87" height="25" fill="none" xmlns="http://www.w3.org/2000/svg"><path d="M16.626 9.025a10.052 10.052 0 005.808 1.831V6.75a5.96 5.96 0 01-1.22-.126v3.233a10.05 10.05 0 01-5.808-1.832v8.383c0 4.194-3.449 7.593-7.703 7.593a7.745 7.745 0 01-4.288-1.284A7.734 7.734 0 008.923 25c4.254 0 7.703-3.4 7.703-7.593V9.025zM18.13 4.88a5.687 5.687 0 01-1.505-3.352V1H15.47a5.75 5.75 0 002.66 3.88zM6.106 19.498a3.427 3.427 0 01-.719-2.103c0-1.918 1.577-3.473 3.524-3.473.362 0 .723.055 1.069.163v-4.2a7.881 7.881 0 00-1.22-.069v3.269a3.576 3.576 0 00-1.069-.163c-1.946 0-3.524 1.555-3.524 3.473a3.47 3.47 0 001.939 3.103z" fill="#FF004F"/><path d="M15.406 8.024a10.053 10.053 0 005.808 1.832V6.623a5.85 5.85 0 01-3.083-1.743A5.75 5.75 0 0115.47 1h-3.037v16.407c-.007 1.913-1.581 3.462-3.523 3.462a3.536 3.536 0 01-2.805-1.371 3.468 3.468 0 01-1.939-3.103c0-1.918 1.578-3.473 3.524-3.473.373 0 .732.057 1.07.163V9.816c-4.18.085-7.541 3.451-7.541 7.591 0 2.067.837 3.94 2.195 5.309A7.746 7.746 0 007.703 24c4.255 0 7.703-3.4 7.703-7.593V8.024z" fill="#000"/><path d="M21.214 6.623v-.875a5.87 5.87 0 01-3.083-.868 5.844 5.844 0 003.083 1.743zM15.47 1a5.766 5.766 0 01-.064-.472V0h-4.192v16.407c-.006 1.913-1.581 3.461-3.523 3.461a3.55 3.55 0 01-1.586-.37 3.536 3.536 0 002.805 1.37c1.942 0 3.517-1.548 3.524-3.46V1h3.036zM8.76 9.816v-.93a7.89 7.89 0 00-1.057-.071C3.45 8.815 0 12.214 0 16.407c0 2.629 1.355 4.946 3.415 6.309a7.512 7.512 0 01-2.195-5.309c0-4.14 3.36-7.506 7.54-7.59z" fill="#00F2EA"/><path d="M69.785 20.562c3.044 0 5.512-2.414 5.512-5.391 0-2.978-2.468-5.392-5.512-5.392h-.83c3.044 0 5.511 2.414 5.511 5.392 0 2.977-2.467 5.391-5.511 5.391h.83z" fill="#FF004F"/><path d="M68.88 9.779h-.831c-3.044 0-5.512 2.414-5.512 5.392 0 2.977 2.468 5.391 5.512 5.391h.83c-3.044 0-5.512-2.414-5.512-5.391 0-2.978 2.468-5.392 5.512-5.392z" fill="#00F2EA"/><path d="M26.976 7.342v2.733h3.246v10.414h3.247v-10.34h2.642l.906-2.807H26.976zm26.577 0v2.733h3.246v10.414h3.247v-10.34h2.642l.906-2.807H53.553zm-15.931 1.55c0-.855.709-1.55 1.584-1.55.877 0 1.586.695 1.586 1.55 0 .857-.709 1.552-1.586 1.552-.875 0-1.584-.695-1.584-1.551zm0 2.66h3.17v8.937h-3.17v-8.937zm4.53-4.21v13.147h3.17V17.09l.982-.887 3.096 4.358h3.397l-4.455-6.351 4.002-3.841h-3.85l-3.171 3.102v-6.13H42.15zm34.201 0v13.147h3.172V17.09l.981-.887 3.096 4.358H87l-4.455-6.351 4.002-3.841h-3.85l-3.172 3.102v-6.13h-3.172zm-7.399 13.22c3.044 0 5.513-2.414 5.513-5.391 0-2.978-2.469-5.392-5.513-5.392h-.075c-3.044 0-5.512 2.414-5.512 5.392 0 2.977 2.468 5.391 5.512 5.391h.075zm-2.718-5.391c0-1.449 1.2-2.622 2.681-2.622 1.48 0 2.68 1.173 2.68 2.622 0 1.448-1.2 2.622-2.68 2.622-1.48 0-2.68-1.174-2.68-2.622z" fill="#000"/></svg>