<svg width="60" height="108" fill="none" xmlns="http://www.w3.org/2000/svg"><path d="M3 54h54a3 3 0 013 3v48a2.998 2.998 0 01-3 3H3a2.999 2.999 0 01-3-3V57a3 3 0 013-3zm24 16.5v21h6v-21h-6zm-.855 0h-6.342l-4.491 12.339L10.821 70.5H4.479l7.833 20.892h6L26.145 70.5zM42 85.5h4.5a7.5 7.5 0 000-15H36v21h6v-6zm0-6v-3h4.5a1.5 1.5 0 110 3H42z" fill="#000"/><path fill-rule="evenodd" clip-rule="evenodd" d="M47.557 25.18l-1.224.793a9.861 9.861 0 01-7.434 1.37 9.997 9.997 0 01-6.256-4.31L30 19l-2.643 4.034a9.997 9.997 0 01-6.256 4.31 9.861 9.861 0 01-7.434-1.371l-1.224-.793 2.697 10.413h29.72l2.697-10.413zM8.847 14.814c-2.56-1.655-5.787.742-5.014 3.725l5.514 21.305a3.394 3.394 0 001.186 1.822 3.298 3.298 0 002.034.707h34.86c.736 0 1.451-.248 2.034-.705a3.394 3.394 0 001.189-1.82l5.513-21.309c.774-2.983-2.453-5.38-5.013-3.725l-8.4 5.437a3.287 3.287 0 01-2.478.457 3.332 3.332 0 01-2.085-1.437l-5.417-8.26a3.353 3.353 0 00-1.2-1.109 3.29 3.29 0 00-3.146 0 3.353 3.353 0 00-1.2 1.108l-5.414 8.261a3.332 3.332 0 01-2.084 1.439 3.287 3.287 0 01-2.48-.456l-8.4-5.44z" fill="#000"/><path d="M33.333 3.39a3.42 3.42 0 01-.976 2.397A3.305 3.305 0 0130 6.78a3.305 3.305 0 01-2.357-.993 3.42 3.42 0 01-.976-2.397c0-.9.35-1.761.976-2.397A3.305 3.305 0 0130 0c.884 0 1.732.357 2.357.993a3.42 3.42 0 01.976 2.397zM60 10.17a3.42 3.42 0 01-.976 2.396 3.305 3.305 0 01-2.357.993 3.306 3.306 0 01-2.357-.992 3.42 3.42 0 01-.977-2.398c0-.899.352-1.76.977-2.396a3.306 3.306 0 012.357-.993c.884 0 1.732.357 2.357.993A3.42 3.42 0 0160 10.169zm-53.333 0a3.42 3.42 0 01-.977 2.396 3.305 3.305 0 01-2.357.993 3.305 3.305 0 01-2.357-.992A3.42 3.42 0 010 10.168c0-.899.351-1.76.976-2.396a3.305 3.305 0 012.357-.993c.884 0 1.732.357 2.357.993a3.42 3.42 0 01.977 2.396z" fill="#000"/><path fill-rule="evenodd" clip-rule="evenodd" d="M11.667 46.61c0-.899.35-1.761.976-2.397A3.305 3.305 0 0115 43.22h30.837c.884 0 1.732.358 2.357.993a3.42 3.42 0 01.976 2.397 3.42 3.42 0 01-.976 2.397 3.305 3.305 0 01-2.357.993H15a3.305 3.305 0 01-2.357-.993 3.42 3.42 0 01-.976-2.397z" fill="#000"/></svg>